<svg width="169" height="36" viewBox="0 0 169 36" fill="none" xmlns="http://www.w3.org/2000/svg">
<g id="outlined-button">
<rect id="&#226;&#134;&#179; &#240;&#159;&#142;&#168; Color" x="0.5" y="0.5" width="168" height="35" rx="3.5" stroke="black" stroke-opacity="0.12"/>
<path id="&#226;&#134;&#179; &#226;&#156;&#143;&#239;&#184;&#143; Label" d="M23.9551 18.2832C23.9551 19.2585 23.7865 20.1152 23.4492 20.8535C23.112 21.5872 22.6289 22.1523 22 22.5488C21.3757 22.9408 20.6556 23.1367 19.8398 23.1367C19.0332 23.1367 18.3132 22.9408 17.6797 22.5488C17.0508 22.1523 16.5632 21.5895 16.2168 20.8604C15.875 20.1312 15.7018 19.2904 15.6973 18.3379V17.7773C15.6973 16.8066 15.8682 15.9499 16.21 15.207C16.5563 14.4642 17.0417 13.8968 17.666 13.5049C18.2949 13.1084 19.015 12.9102 19.8262 12.9102C20.6374 12.9102 21.3551 13.1061 21.9795 13.498C22.6084 13.8854 23.0938 14.446 23.4355 15.1797C23.7773 15.9089 23.9505 16.7588 23.9551 17.7295V18.2832ZM22.2256 17.7637C22.2256 16.6608 22.016 15.8154 21.5967 15.2275C21.182 14.6396 20.5918 14.3457 19.8262 14.3457C19.0788 14.3457 18.4932 14.6396 18.0693 15.2275C17.6501 15.8109 17.4359 16.638 17.4268 17.709V18.2832C17.4268 19.377 17.6387 20.2223 18.0625 20.8193C18.4909 21.4163 19.0833 21.7148 19.8398 21.7148C20.6055 21.7148 21.1934 21.4232 21.6035 20.8398C22.0182 20.2565 22.2256 19.4043 22.2256 18.2832V17.7637ZM34.208 13.0469V19.6982C34.208 20.7555 33.8685 21.5941 33.1895 22.2139C32.515 22.8291 31.6149 23.1367 30.4893 23.1367C29.3499 23.1367 28.4453 22.8337 27.7754 22.2275C27.1055 21.6169 26.7705 20.7715 26.7705 19.6914V13.0469H28.4932V19.7051C28.4932 20.3704 28.6618 20.8786 28.999 21.2295C29.3363 21.5804 29.833 21.7559 30.4893 21.7559C31.82 21.7559 32.4854 21.054 32.4854 19.6504V13.0469H34.208ZM44.502 14.4414H41.3984V23H39.6826V14.4414H36.6064V13.0469H44.502V14.4414ZM48.7939 21.6191H53.3125V23H47.0645V13.0469H48.7939V21.6191ZM57.7139 23H55.9912V13.0469H57.7139V23ZM68.9854 23H67.2559L62.8193 15.9385V23H61.0898V13.0469H62.8193L67.2695 20.1357V13.0469H68.9854V23ZM78.0967 18.5566H74.0088V21.6191H78.7871V23H72.2793V13.0469H78.7393V14.4414H74.0088V17.1895H78.0967V18.5566ZM81.4453 23V13.0469H84.3848C85.2643 13.0469 86.0436 13.2428 86.7227 13.6348C87.4062 14.0267 87.9349 14.5827 88.3086 15.3027C88.6823 16.0228 88.8691 16.8477 88.8691 17.7773V18.2764C88.8691 19.2197 88.68 20.0492 88.3018 20.7646C87.9281 21.4801 87.3926 22.0316 86.6953 22.4189C86.0026 22.8063 85.2074 23 84.3096 23H81.4453ZM83.1748 14.4414V21.6191H84.3027C85.2096 21.6191 85.9046 21.3366 86.3877 20.7715C86.8753 20.2018 87.1237 19.3861 87.1328 18.3242V17.7705C87.1328 16.6904 86.8981 15.8656 86.4287 15.2959C85.9593 14.7262 85.278 14.4414 84.3848 14.4414H83.1748ZM96.5781 23V13.0469H99.9893C101.115 13.0469 101.972 13.2725 102.56 13.7236C103.147 14.1748 103.441 14.847 103.441 15.7402C103.441 16.196 103.318 16.6061 103.072 16.9707C102.826 17.3353 102.466 17.6178 101.992 17.8184C102.53 17.9642 102.945 18.2399 103.236 18.6455C103.533 19.0465 103.681 19.5296 103.681 20.0947C103.681 21.029 103.38 21.7467 102.778 22.248C102.181 22.7493 101.325 23 100.208 23H96.5781ZM98.3076 18.5088V21.6191H100.229C100.771 21.6191 101.195 21.4847 101.5 21.2158C101.805 20.9469 101.958 20.5732 101.958 20.0947C101.958 19.0602 101.429 18.5316 100.372 18.5088H98.3076ZM98.3076 17.2373H100.003C100.541 17.2373 100.96 17.1165 101.261 16.875C101.566 16.6289 101.719 16.2826 101.719 15.8359C101.719 15.3438 101.577 14.9883 101.295 14.7695C101.017 14.5508 100.582 14.4414 99.9893 14.4414H98.3076V17.2373ZM113.94 13.0469V19.6982C113.94 20.7555 113.601 21.5941 112.922 22.2139C112.247 22.8291 111.347 23.1367 110.222 23.1367C109.082 23.1367 108.178 22.8337 107.508 22.2275C106.838 21.6169 106.503 20.7715 106.503 19.6914V13.0469H108.226V19.7051C108.226 20.3704 108.394 20.8786 108.731 21.2295C109.069 21.5804 109.565 21.7559 110.222 21.7559C111.552 21.7559 112.218 21.054 112.218 19.6504V13.0469H113.94ZM124.234 14.4414H121.131V23H119.415V14.4414H116.339V13.0469H124.234V14.4414ZM134.098 14.4414H130.994V23H129.278V14.4414H126.202V13.0469H134.098V14.4414ZM144.412 18.2832C144.412 19.2585 144.243 20.1152 143.906 20.8535C143.569 21.5872 143.086 22.1523 142.457 22.5488C141.833 22.9408 141.113 23.1367 140.297 23.1367C139.49 23.1367 138.77 22.9408 138.137 22.5488C137.508 22.1523 137.02 21.5895 136.674 20.8604C136.332 20.1312 136.159 19.2904 136.154 18.3379V17.7773C136.154 16.8066 136.325 15.9499 136.667 15.207C137.013 14.4642 137.499 13.8968 138.123 13.5049C138.752 13.1084 139.472 12.9102 140.283 12.9102C141.094 12.9102 141.812 13.1061 142.437 13.498C143.065 13.8854 143.551 14.446 143.893 15.1797C144.234 15.9089 144.408 16.7588 144.412 17.7295V18.2832ZM142.683 17.7637C142.683 16.6608 142.473 15.8154 142.054 15.2275C141.639 14.6396 141.049 14.3457 140.283 14.3457C139.536 14.3457 138.95 14.6396 138.526 15.2275C138.107 15.8109 137.893 16.638 137.884 17.709V18.2832C137.884 19.377 138.096 20.2223 138.52 20.8193C138.948 21.4163 139.54 21.7148 140.297 21.7148C141.062 21.7148 141.65 21.4232 142.061 20.8398C142.475 20.2565 142.683 19.4043 142.683 18.2832V17.7637ZM155.28 23H153.551L149.114 15.9385V23H147.385V13.0469H149.114L153.564 20.1357V13.0469H155.28V23Z" fill="#6200EE"/>
</g>
</svg>
