<svg width="121" height="49" viewBox="0 0 121 49" fill="none" xmlns="http://www.w3.org/2000/svg">
<g id="text-button">
<path id="&#226;&#134;&#179; &#226;&#156;&#143;&#239;&#184;&#143; Label" d="M15.2031 27.4414H12.0996V36H10.3838V27.4414H7.30762V26.0469H15.2031V27.4414ZM23.583 31.5566H19.4951V34.6191H24.2734V36H17.7656V26.0469H24.2256V27.4414H19.4951V30.1895H23.583V31.5566ZM30.3564 29.6426L32.4482 26.0469H34.4443L31.4365 30.9824L34.5127 36H32.4961L30.3564 32.3496L28.21 36H26.2002L29.2832 30.9824L26.2686 26.0469H28.2646L30.3564 29.6426ZM44.2324 27.4414H41.1289V36H39.4131V27.4414H36.3369V26.0469H44.2324V27.4414ZM51.1211 36V26.0469H54.5322C55.6579 26.0469 56.5146 26.2725 57.1025 26.7236C57.6904 27.1748 57.9844 27.847 57.9844 28.7402C57.9844 29.196 57.8613 29.6061 57.6152 29.9707C57.3691 30.3353 57.0091 30.6178 56.5352 30.8184C57.0729 30.9642 57.4876 31.2399 57.7793 31.6455C58.0755 32.0465 58.2236 32.5296 58.2236 33.0947C58.2236 34.029 57.9229 34.7467 57.3213 35.248C56.7243 35.7493 55.8675 36 54.751 36H51.1211ZM52.8506 31.5088V34.6191H54.7715C55.3138 34.6191 55.7376 34.4847 56.043 34.2158C56.3483 33.9469 56.501 33.5732 56.501 33.0947C56.501 32.0602 55.9723 31.5316 54.915 31.5088H52.8506ZM52.8506 30.2373H54.5459C55.0837 30.2373 55.5029 30.1165 55.8037 29.875C56.109 29.6289 56.2617 29.2826 56.2617 28.8359C56.2617 28.3438 56.1204 27.9883 55.8379 27.7695C55.5599 27.5508 55.1247 27.4414 54.5322 27.4414H52.8506V30.2373ZM68.4834 26.0469V32.6982C68.4834 33.7555 68.1439 34.5941 67.4648 35.2139C66.7904 35.8291 65.8903 36.1367 64.7646 36.1367C63.6253 36.1367 62.7207 35.8337 62.0508 35.2275C61.3809 34.6169 61.0459 33.7715 61.0459 32.6914V26.0469H62.7686V32.7051C62.7686 33.3704 62.9372 33.8786 63.2744 34.2295C63.6117 34.5804 64.1084 34.7559 64.7646 34.7559C66.0954 34.7559 66.7607 34.054 66.7607 32.6504V26.0469H68.4834ZM78.7773 27.4414H75.6738V36H73.958V27.4414H70.8818V26.0469H78.7773V27.4414ZM88.6406 27.4414H85.5371V36H83.8213V27.4414H80.7451V26.0469H88.6406V27.4414ZM98.9551 31.2832C98.9551 32.2585 98.7865 33.1152 98.4492 33.8535C98.112 34.5872 97.6289 35.1523 97 35.5488C96.3757 35.9408 95.6556 36.1367 94.8398 36.1367C94.0332 36.1367 93.3132 35.9408 92.6797 35.5488C92.0508 35.1523 91.5632 34.5895 91.2168 33.8604C90.875 33.1312 90.7018 32.2904 90.6973 31.3379V30.7773C90.6973 29.8066 90.8682 28.9499 91.21 28.207C91.5563 27.4642 92.0417 26.8968 92.666 26.5049C93.2949 26.1084 94.015 25.9102 94.8262 25.9102C95.6374 25.9102 96.3551 26.1061 96.9795 26.498C97.6084 26.8854 98.0938 27.446 98.4355 28.1797C98.7773 28.9089 98.9505 29.7588 98.9551 30.7295V31.2832ZM97.2256 30.7637C97.2256 29.6608 97.016 28.8154 96.5967 28.2275C96.182 27.6396 95.5918 27.3457 94.8262 27.3457C94.0788 27.3457 93.4932 27.6396 93.0693 28.2275C92.6501 28.8109 92.4359 29.638 92.4268 30.709V31.2832C92.4268 32.377 92.6387 33.2223 93.0625 33.8193C93.4909 34.4163 94.0833 34.7148 94.8398 34.7148C95.6055 34.7148 96.1934 34.4232 96.6035 33.8398C97.0182 33.2565 97.2256 32.4043 97.2256 31.2832V30.7637ZM109.823 36H108.094L103.657 28.9385V36H101.928V26.0469H103.657L108.107 33.1357V26.0469H109.823V36Z" fill="#6200EE"/>
</g>
</svg>
