<svg width="284" height="244" viewBox="0 0 284 244" fill="none" xmlns="http://www.w3.org/2000/svg">
<rect width="284" height="244" fill="white"/>
<path d="M100.203 31.4414H97.0996V40H95.3838V31.4414H92.3076V30.0469H100.203V31.4414ZM108.583 35.5566H104.495V38.6191H109.273V40H102.766V30.0469H109.226V31.4414H104.495V34.1895H108.583V35.5566ZM115.356 33.6426L117.448 30.0469H119.444L116.437 34.9824L119.513 40H117.496L115.356 36.3496L113.21 40H111.2L114.283 34.9824L111.269 30.0469H113.265L115.356 33.6426ZM129.232 31.4414H126.129V40H124.413V31.4414H121.337V30.0469H129.232V31.4414ZM136.121 40V30.0469H139.532C140.658 30.0469 141.515 30.2725 142.103 30.7236C142.69 31.1748 142.984 31.847 142.984 32.7402C142.984 33.196 142.861 33.6061 142.615 33.9707C142.369 34.3353 142.009 34.6178 141.535 34.8184C142.073 34.9642 142.488 35.2399 142.779 35.6455C143.076 36.0465 143.224 36.5296 143.224 37.0947C143.224 38.029 142.923 38.7467 142.321 39.248C141.724 39.7493 140.868 40 139.751 40H136.121ZM137.851 35.5088V38.6191H139.771C140.314 38.6191 140.738 38.4847 141.043 38.2158C141.348 37.9469 141.501 37.5732 141.501 37.0947C141.501 36.0602 140.972 35.5316 139.915 35.5088H137.851ZM137.851 34.2373H139.546C140.084 34.2373 140.503 34.1165 140.804 33.875C141.109 33.6289 141.262 33.2826 141.262 32.8359C141.262 32.3438 141.12 31.9883 140.838 31.7695C140.56 31.5508 140.125 31.4414 139.532 31.4414H137.851V34.2373ZM153.483 30.0469V36.6982C153.483 37.7555 153.144 38.5941 152.465 39.2139C151.79 39.8291 150.89 40.1367 149.765 40.1367C148.625 40.1367 147.721 39.8337 147.051 39.2275C146.381 38.6169 146.046 37.7715 146.046 36.6914V30.0469H147.769V36.7051C147.769 37.3704 147.937 37.8786 148.274 38.2295C148.612 38.5804 149.108 38.7559 149.765 38.7559C151.095 38.7559 151.761 38.054 151.761 36.6504V30.0469H153.483ZM163.777 31.4414H160.674V40H158.958V31.4414H155.882V30.0469H163.777V31.4414ZM173.641 31.4414H170.537V40H168.821V31.4414H165.745V30.0469H173.641V31.4414ZM183.955 35.2832C183.955 36.2585 183.786 37.1152 183.449 37.8535C183.112 38.5872 182.629 39.1523 182 39.5488C181.376 39.9408 180.656 40.1367 179.84 40.1367C179.033 40.1367 178.313 39.9408 177.68 39.5488C177.051 39.1523 176.563 38.5895 176.217 37.8604C175.875 37.1312 175.702 36.2904 175.697 35.3379V34.7773C175.697 33.8066 175.868 32.9499 176.21 32.207C176.556 31.4642 177.042 30.8968 177.666 30.5049C178.295 30.1084 179.015 29.9102 179.826 29.9102C180.637 29.9102 181.355 30.1061 181.979 30.498C182.608 30.8854 183.094 31.446 183.436 32.1797C183.777 32.9089 183.951 33.7588 183.955 34.7295V35.2832ZM182.226 34.7637C182.226 33.6608 182.016 32.8154 181.597 32.2275C181.182 31.6396 180.592 31.3457 179.826 31.3457C179.079 31.3457 178.493 31.6396 178.069 32.2275C177.65 32.8109 177.436 33.638 177.427 34.709V35.2832C177.427 36.377 177.639 37.2223 178.062 37.8193C178.491 38.4163 179.083 38.7148 179.84 38.7148C180.605 38.7148 181.193 38.4232 181.604 37.8398C182.018 37.2565 182.226 36.4043 182.226 35.2832V34.7637ZM194.823 40H193.094L188.657 32.9385V40H186.928V30.0469H188.657L193.107 37.1357V30.0469H194.823V40Z" fill="#6200EE"/>
<rect x="78.5" y="73.5" width="168" height="35" rx="3.5" stroke="black" stroke-opacity="0.12"/>
<path d="M101.955 91.2832C101.955 92.2585 101.786 93.1152 101.449 93.8535C101.112 94.5872 100.629 95.1523 100 95.5488C99.3757 95.9408 98.6556 96.1367 97.8398 96.1367C97.0332 96.1367 96.3132 95.9408 95.6797 95.5488C95.0508 95.1523 94.5632 94.5895 94.2168 93.8604C93.875 93.1312 93.7018 92.2904 93.6973 91.3379V90.7773C93.6973 89.8066 93.8682 88.9499 94.21 88.207C94.5563 87.4642 95.0417 86.8968 95.666 86.5049C96.2949 86.1084 97.015 85.9102 97.8262 85.9102C98.6374 85.9102 99.3551 86.1061 99.9795 86.498C100.608 86.8854 101.094 87.446 101.436 88.1797C101.777 88.9089 101.951 89.7588 101.955 90.7295V91.2832ZM100.226 90.7637C100.226 89.6608 100.016 88.8154 99.5967 88.2275C99.182 87.6396 98.5918 87.3457 97.8262 87.3457C97.0788 87.3457 96.4932 87.6396 96.0693 88.2275C95.6501 88.8109 95.4359 89.638 95.4268 90.709V91.2832C95.4268 92.377 95.6387 93.2223 96.0625 93.8193C96.4909 94.4163 97.0833 94.7148 97.8398 94.7148C98.6055 94.7148 99.1934 94.4232 99.6035 93.8398C100.018 93.2565 100.226 92.4043 100.226 91.2832V90.7637ZM112.208 86.0469V92.6982C112.208 93.7555 111.868 94.5941 111.189 95.2139C110.515 95.8291 109.615 96.1367 108.489 96.1367C107.35 96.1367 106.445 95.8337 105.775 95.2275C105.105 94.6169 104.771 93.7715 104.771 92.6914V86.0469H106.493V92.7051C106.493 93.3704 106.662 93.8786 106.999 94.2295C107.336 94.5804 107.833 94.7559 108.489 94.7559C109.82 94.7559 110.485 94.054 110.485 92.6504V86.0469H112.208ZM122.502 87.4414H119.398V96H117.683V87.4414H114.606V86.0469H122.502V87.4414ZM126.794 94.6191H131.312V96H125.064V86.0469H126.794V94.6191ZM135.714 96H133.991V86.0469H135.714V96ZM146.985 96H145.256L140.819 88.9385V96H139.09V86.0469H140.819L145.27 93.1357V86.0469H146.985V96ZM156.097 91.5566H152.009V94.6191H156.787V96H150.279V86.0469H156.739V87.4414H152.009V90.1895H156.097V91.5566ZM159.445 96V86.0469H162.385C163.264 86.0469 164.044 86.2428 164.723 86.6348C165.406 87.0267 165.935 87.5827 166.309 88.3027C166.682 89.0228 166.869 89.8477 166.869 90.7773V91.2764C166.869 92.2197 166.68 93.0492 166.302 93.7646C165.928 94.4801 165.393 95.0316 164.695 95.4189C164.003 95.8063 163.207 96 162.31 96H159.445ZM161.175 87.4414V94.6191H162.303C163.21 94.6191 163.905 94.3366 164.388 93.7715C164.875 93.2018 165.124 92.3861 165.133 91.3242V90.7705C165.133 89.6904 164.898 88.8656 164.429 88.2959C163.959 87.7262 163.278 87.4414 162.385 87.4414H161.175ZM174.578 96V86.0469H177.989C179.115 86.0469 179.972 86.2725 180.56 86.7236C181.147 87.1748 181.441 87.847 181.441 88.7402C181.441 89.196 181.318 89.6061 181.072 89.9707C180.826 90.3353 180.466 90.6178 179.992 90.8184C180.53 90.9642 180.945 91.2399 181.236 91.6455C181.533 92.0465 181.681 92.5296 181.681 93.0947C181.681 94.029 181.38 94.7467 180.778 95.248C180.181 95.7493 179.325 96 178.208 96H174.578ZM176.308 91.5088V94.6191H178.229C178.771 94.6191 179.195 94.4847 179.5 94.2158C179.805 93.9469 179.958 93.5732 179.958 93.0947C179.958 92.0602 179.429 91.5316 178.372 91.5088H176.308ZM176.308 90.2373H178.003C178.541 90.2373 178.96 90.1165 179.261 89.875C179.566 89.6289 179.719 89.2826 179.719 88.8359C179.719 88.3438 179.577 87.9883 179.295 87.7695C179.017 87.5508 178.582 87.4414 177.989 87.4414H176.308V90.2373ZM191.94 86.0469V92.6982C191.94 93.7555 191.601 94.5941 190.922 95.2139C190.247 95.8291 189.347 96.1367 188.222 96.1367C187.082 96.1367 186.178 95.8337 185.508 95.2275C184.838 94.6169 184.503 93.7715 184.503 92.6914V86.0469H186.226V92.7051C186.226 93.3704 186.394 93.8786 186.731 94.2295C187.069 94.5804 187.565 94.7559 188.222 94.7559C189.552 94.7559 190.218 94.054 190.218 92.6504V86.0469H191.94ZM202.234 87.4414H199.131V96H197.415V87.4414H194.339V86.0469H202.234V87.4414ZM212.098 87.4414H208.994V96H207.278V87.4414H204.202V86.0469H212.098V87.4414ZM222.412 91.2832C222.412 92.2585 222.243 93.1152 221.906 93.8535C221.569 94.5872 221.086 95.1523 220.457 95.5488C219.833 95.9408 219.113 96.1367 218.297 96.1367C217.49 96.1367 216.77 95.9408 216.137 95.5488C215.508 95.1523 215.02 94.5895 214.674 93.8604C214.332 93.1312 214.159 92.2904 214.154 91.3379V90.7773C214.154 89.8066 214.325 88.9499 214.667 88.207C215.013 87.4642 215.499 86.8968 216.123 86.5049C216.752 86.1084 217.472 85.9102 218.283 85.9102C219.094 85.9102 219.812 86.1061 220.437 86.498C221.065 86.8854 221.551 87.446 221.893 88.1797C222.234 88.9089 222.408 89.7588 222.412 90.7295V91.2832ZM220.683 90.7637C220.683 89.6608 220.473 88.8154 220.054 88.2275C219.639 87.6396 219.049 87.3457 218.283 87.3457C217.536 87.3457 216.95 87.6396 216.526 88.2275C216.107 88.8109 215.893 89.638 215.884 90.709V91.2832C215.884 92.377 216.096 93.2223 216.52 93.8193C216.948 94.4163 217.54 94.7148 218.297 94.7148C219.062 94.7148 219.65 94.4232 220.061 93.8398C220.475 93.2565 220.683 92.4043 220.683 91.2832V90.7637ZM233.28 96H231.551L227.114 88.9385V96H225.385V86.0469H227.114L231.564 93.1357V86.0469H233.28V96Z" fill="#6200EE"/>
<rect x="78" y="129" width="185" height="36" rx="4" fill="#6200EE"/>
<path d="M101.606 148.76C101.506 149.822 101.114 150.651 100.431 151.248C99.7471 151.84 98.8379 152.137 97.7031 152.137C96.9102 152.137 96.2106 151.95 95.6045 151.576C95.0029 151.198 94.5381 150.662 94.21 149.97C93.8818 149.277 93.7109 148.473 93.6973 147.557V146.627C93.6973 145.688 93.8636 144.861 94.1963 144.146C94.529 143.43 95.0052 142.879 95.625 142.491C96.2493 142.104 96.9694 141.91 97.7852 141.91C98.8835 141.91 99.7676 142.209 100.438 142.806C101.107 143.403 101.497 144.246 101.606 145.335H99.8838C99.8018 144.619 99.5921 144.104 99.2549 143.79C98.9222 143.471 98.4323 143.312 97.7852 143.312C97.0332 143.312 96.4544 143.587 96.0488 144.139C95.6478 144.686 95.4427 145.49 95.4336 146.552V147.434C95.4336 148.509 95.625 149.329 96.0078 149.895C96.3952 150.46 96.9603 150.742 97.7031 150.742C98.3822 150.742 98.8926 150.59 99.2344 150.284C99.5762 149.979 99.7926 149.471 99.8838 148.76H101.606ZM112.352 147.283C112.352 148.258 112.183 149.115 111.846 149.854C111.508 150.587 111.025 151.152 110.396 151.549C109.772 151.941 109.052 152.137 108.236 152.137C107.43 152.137 106.71 151.941 106.076 151.549C105.447 151.152 104.96 150.59 104.613 149.86C104.271 149.131 104.098 148.29 104.094 147.338V146.777C104.094 145.807 104.265 144.95 104.606 144.207C104.953 143.464 105.438 142.897 106.062 142.505C106.691 142.108 107.411 141.91 108.223 141.91C109.034 141.91 109.752 142.106 110.376 142.498C111.005 142.885 111.49 143.446 111.832 144.18C112.174 144.909 112.347 145.759 112.352 146.729V147.283ZM110.622 146.764C110.622 145.661 110.412 144.815 109.993 144.228C109.578 143.64 108.988 143.346 108.223 143.346C107.475 143.346 106.89 143.64 106.466 144.228C106.047 144.811 105.832 145.638 105.823 146.709V147.283C105.823 148.377 106.035 149.222 106.459 149.819C106.887 150.416 107.48 150.715 108.236 150.715C109.002 150.715 109.59 150.423 110 149.84C110.415 149.257 110.622 148.404 110.622 147.283V146.764ZM123.22 152H121.49L117.054 144.938V152H115.324V142.047H117.054L121.504 149.136V142.047H123.22V152ZM133.5 143.441H130.396V152H128.681V143.441H125.604V142.047H133.5V143.441ZM140.813 149.683H136.958L136.151 152H134.354L138.113 142.047H139.665L143.432 152H141.627L140.813 149.683ZM137.443 148.288H140.328L138.886 144.159L137.443 148.288ZM147.642 152H145.919V142.047H147.642V152ZM158.913 152H157.184L152.747 144.938V152H151.018V142.047H152.747L157.197 149.136V142.047H158.913V152ZM168.024 147.557H163.937V150.619H168.715V152H162.207V142.047H168.667V143.441H163.937V146.189H168.024V147.557ZM171.373 152V142.047H174.312C175.192 142.047 175.971 142.243 176.65 142.635C177.334 143.027 177.863 143.583 178.236 144.303C178.61 145.023 178.797 145.848 178.797 146.777V147.276C178.797 148.22 178.608 149.049 178.229 149.765C177.856 150.48 177.32 151.032 176.623 151.419C175.93 151.806 175.135 152 174.237 152H171.373ZM173.103 143.441V150.619H174.23C175.137 150.619 175.832 150.337 176.315 149.771C176.803 149.202 177.051 148.386 177.061 147.324V146.771C177.061 145.69 176.826 144.866 176.356 144.296C175.887 143.726 175.206 143.441 174.312 143.441H173.103ZM186.506 152V142.047H189.917C191.043 142.047 191.899 142.272 192.487 142.724C193.075 143.175 193.369 143.847 193.369 144.74C193.369 145.196 193.246 145.606 193 145.971C192.754 146.335 192.394 146.618 191.92 146.818C192.458 146.964 192.872 147.24 193.164 147.646C193.46 148.047 193.608 148.53 193.608 149.095C193.608 150.029 193.308 150.747 192.706 151.248C192.109 151.749 191.252 152 190.136 152H186.506ZM188.235 147.509V150.619H190.156C190.699 150.619 191.122 150.485 191.428 150.216C191.733 149.947 191.886 149.573 191.886 149.095C191.886 148.06 191.357 147.532 190.3 147.509H188.235ZM188.235 146.237H189.931C190.468 146.237 190.888 146.117 191.188 145.875C191.494 145.629 191.646 145.283 191.646 144.836C191.646 144.344 191.505 143.988 191.223 143.77C190.945 143.551 190.509 143.441 189.917 143.441H188.235V146.237ZM203.868 142.047V148.698C203.868 149.756 203.529 150.594 202.85 151.214C202.175 151.829 201.275 152.137 200.149 152.137C199.01 152.137 198.105 151.834 197.436 151.228C196.766 150.617 196.431 149.771 196.431 148.691V142.047H198.153V148.705C198.153 149.37 198.322 149.879 198.659 150.229C198.996 150.58 199.493 150.756 200.149 150.756C201.48 150.756 202.146 150.054 202.146 148.65V142.047H203.868ZM214.162 143.441H211.059V152H209.343V143.441H206.267V142.047H214.162V143.441ZM224.025 143.441H220.922V152H219.206V143.441H216.13V142.047H224.025V143.441ZM234.34 147.283C234.34 148.258 234.171 149.115 233.834 149.854C233.497 150.587 233.014 151.152 232.385 151.549C231.76 151.941 231.04 152.137 230.225 152.137C229.418 152.137 228.698 151.941 228.064 151.549C227.436 151.152 226.948 150.59 226.602 149.86C226.26 149.131 226.087 148.29 226.082 147.338V146.777C226.082 145.807 226.253 144.95 226.595 144.207C226.941 143.464 227.426 142.897 228.051 142.505C228.68 142.108 229.4 141.91 230.211 141.91C231.022 141.91 231.74 142.106 232.364 142.498C232.993 142.885 233.479 143.446 233.82 144.18C234.162 144.909 234.335 145.759 234.34 146.729V147.283ZM232.61 146.764C232.61 145.661 232.401 144.815 231.981 144.228C231.567 143.64 230.977 143.346 230.211 143.346C229.464 143.346 228.878 143.64 228.454 144.228C228.035 144.811 227.821 145.638 227.812 146.709V147.283C227.812 148.377 228.023 149.222 228.447 149.819C228.876 150.416 229.468 150.715 230.225 150.715C230.99 150.715 231.578 150.423 231.988 149.84C232.403 149.257 232.61 148.404 232.61 147.283V146.764ZM245.208 152H243.479L239.042 144.938V152H237.312V142.047H239.042L243.492 149.136V142.047H245.208V152Z" fill="white"/>
<rect x="126.25" y="179.25" width="47.5" height="0.5" stroke="#212121" stroke-opacity="0.08" stroke-width="0.5"/>
<rect x="126.25" y="226.25" width="47.5" height="0.5" stroke="#212121" stroke-opacity="0.08" stroke-width="0.5"/>
<rect x="126" y="179" width="48" height="48" fill="#BB86FC" fill-opacity="0.12"/>
<mask id="mask0" mask-type="alpha" maskUnits="userSpaceOnUse" x="126" y="179" width="48" height="48">
<rect x="126" y="179" width="48" height="48" fill="white"/>
</mask>
<g mask="url(#mask0)">
<path fill-rule="evenodd" clip-rule="evenodd" d="M150 196C145 196 140.73 199.11 139 203.5C140.73 207.89 145 211 150 211C155 211 159.27 207.89 161 203.5C159.27 199.11 155 196 150 196ZM150 208.5C147.24 208.5 145 206.26 145 203.5C145 200.74 147.24 198.5 150 198.5C152.76 198.5 155 200.74 155 203.5C155 206.26 152.76 208.5 150 208.5ZM150 200.5C148.34 200.5 147 201.84 147 203.5C147 205.16 148.34 206.5 150 206.5C151.66 206.5 153 205.16 153 203.5C153 201.84 151.66 200.5 150 200.5Z" fill="#6200EE"/>
</g>
<path d="M77.5 183C77.5 181.067 79.067 179.5 81 179.5H126.5V226.5H81C79.067 226.5 77.5 224.933 77.5 223V183Z" stroke="black" stroke-opacity="0.12"/>
<mask id="mask1" mask-type="alpha" maskUnits="userSpaceOnUse" x="78" y="179" width="48" height="48">
<path d="M78 183C78 180.791 79.7909 179 82 179H126V227H82C79.7909 227 78 225.209 78 223V183Z" fill="white"/>
</mask>
<g mask="url(#mask1)">
<path fill-rule="evenodd" clip-rule="evenodd" d="M102 212.35L100.55 211.03C95.4 206.36 92 203.28 92 199.5C92 196.42 94.42 194 97.5 194C99.24 194 100.91 194.81 102 196.09C103.09 194.81 104.76 194 106.5 194C109.58 194 112 196.42 112 199.5C112 203.28 108.6 206.36 103.45 211.04L102 212.35Z" fill="black" fill-opacity="0.6"/>
</g>
<mask id="mask2" mask-type="alpha" maskUnits="userSpaceOnUse" x="174" y="179" width="49" height="48">
<rect width="49" height="48" transform="matrix(-1 0 0 1 223 179)" fill="white"/>
</mask>
<g mask="url(#mask2)">
<path d="M222.5 183C222.5 181.067 220.933 179.5 219 179.5H173.5V226.5H219C220.933 226.5 222.5 224.933 222.5 223V183Z" stroke="black" stroke-opacity="0.12"/>
</g>
<rect x="175" y="180" width="46" height="1" transform="rotate(90 175 180)" fill="#212121" fill-opacity="0.08"/>
<mask id="mask3" mask-type="alpha" maskUnits="userSpaceOnUse" x="174" y="179" width="48" height="48">
<path d="M174 179H218C220.209 179 222 180.791 222 183V223C222 225.209 220.209 227 218 227H174V179Z" fill="white"/>
</mask>
<g mask="url(#mask3)">
<path fill-rule="evenodd" clip-rule="evenodd" d="M198 213C199.1 213 200 212.1 200 211H196C196 212.1 196.89 213 198 213ZM204 207V202C204 198.93 202.36 196.36 199.5 195.68V195C199.5 194.17 198.83 193.5 198 193.5C197.17 193.5 196.5 194.17 196.5 195V195.68C193.63 196.36 192 198.92 192 202V207L190 209V210H206V209L204 207Z" fill="black" fill-opacity="0.6"/>
</g>
<circle cx="36" cy="35" r="17.5" stroke="black" stroke-opacity="0.54"/>
<path d="M37.2432 40H35.5889V32.0088L33.1484 32.8428V31.4414L37.0312 30.0127H37.2432V40Z" fill="black" fill-opacity="0.54"/>
<circle cx="36" cy="91" r="17.5" stroke="black" stroke-opacity="0.54"/>
<path d="M39.4375 96H32.7451V94.8584L36.0605 91.2422C36.5391 90.709 36.8786 90.2646 37.0791 89.9092C37.2842 89.5492 37.3867 89.1891 37.3867 88.8291C37.3867 88.3551 37.2523 87.9723 36.9834 87.6807C36.7191 87.389 36.3613 87.2432 35.9102 87.2432C35.3724 87.2432 34.9554 87.4072 34.6592 87.7354C34.363 88.0635 34.2148 88.5124 34.2148 89.082H32.5537C32.5537 88.4759 32.6904 87.9313 32.9639 87.4482C33.2419 86.9606 33.6361 86.5824 34.1465 86.3135C34.6615 86.0446 35.2539 85.9102 35.9238 85.9102C36.89 85.9102 37.651 86.154 38.207 86.6416C38.7676 87.1247 39.0479 87.7946 39.0479 88.6514C39.0479 89.1481 38.9066 89.6699 38.624 90.2168C38.346 90.7591 37.888 91.3766 37.25 92.0693L34.8164 94.6738H39.4375V96Z" fill="black" fill-opacity="0.54"/>
<circle cx="36" cy="147" r="17.5" stroke="black" stroke-opacity="0.54"/>
<path d="M34.666 146.265H35.6777C36.1882 146.26 36.5915 146.128 36.8877 145.868C37.1885 145.608 37.3389 145.232 37.3389 144.74C37.3389 144.266 37.2135 143.899 36.9629 143.64C36.7168 143.375 36.3385 143.243 35.8281 143.243C35.3815 143.243 35.0146 143.373 34.7275 143.633C34.4404 143.888 34.2969 144.223 34.2969 144.638H32.6357C32.6357 144.127 32.7702 143.662 33.0391 143.243C33.3125 142.824 33.6908 142.498 34.1738 142.266C34.6615 142.029 35.2061 141.91 35.8076 141.91C36.8011 141.91 37.5804 142.161 38.1455 142.662C38.7152 143.159 39 143.852 39 144.74C39 145.187 38.8564 145.608 38.5693 146.005C38.2868 146.397 37.9199 146.693 37.4688 146.894C38.0156 147.08 38.4303 147.374 38.7129 147.775C39 148.176 39.1436 148.655 39.1436 149.211C39.1436 150.104 38.8359 150.815 38.2207 151.344C37.61 151.872 36.8057 152.137 35.8076 152.137C34.8506 152.137 34.0667 151.882 33.4561 151.371C32.8454 150.861 32.54 150.182 32.54 149.334H34.2012C34.2012 149.771 34.347 150.127 34.6387 150.4C34.9349 150.674 35.3314 150.811 35.8281 150.811C36.3431 150.811 36.7487 150.674 37.0449 150.4C37.3411 150.127 37.4893 149.73 37.4893 149.211C37.4893 148.687 37.3343 148.284 37.0244 148.001C36.7145 147.718 36.2542 147.577 35.6436 147.577H34.666V146.265Z" fill="black" fill-opacity="0.54"/>
<circle cx="36" cy="203" r="17.5" stroke="black" stroke-opacity="0.54"/>
<path d="M38.3643 204.452H39.6016V205.785H38.3643V208H36.7031V205.785H32.4033L32.3555 204.773L36.6484 198.047H38.3643V204.452ZM34.0986 204.452H36.7031V200.296L36.5801 200.515L34.0986 204.452Z" fill="black" fill-opacity="0.54"/>
</svg>
