<svg width="185" height="49" viewBox="0 0 185 49" fill="none" xmlns="http://www.w3.org/2000/svg">
<g id="contained-button">
<rect id="&#226;&#134;&#179; &#240;&#159;&#142;&#168; Color l Container" y="13" width="185" height="36" rx="4" fill="#6200EE"/>
<path id="&#226;&#134;&#179; &#226;&#156;&#143;&#239;&#184;&#143; Label" d="M23.6064 32.7598C23.5062 33.8216 23.1143 34.651 22.4307 35.248C21.7471 35.8405 20.8379 36.1367 19.7031 36.1367C18.9102 36.1367 18.2106 35.9499 17.6045 35.5762C17.0029 35.1979 16.5381 34.6624 16.21 33.9697C15.8818 33.277 15.7109 32.4727 15.6973 31.5566V30.627C15.6973 29.6882 15.8636 28.861 16.1963 28.1455C16.529 27.43 17.0052 26.8786 17.625 26.4912C18.2493 26.1038 18.9694 25.9102 19.7852 25.9102C20.8835 25.9102 21.7676 26.2087 22.4375 26.8057C23.1074 27.4027 23.4971 28.2458 23.6064 29.335H21.8838C21.8018 28.6195 21.5921 28.1045 21.2549 27.79C20.9222 27.471 20.4323 27.3115 19.7852 27.3115C19.0332 27.3115 18.4544 27.5872 18.0488 28.1387C17.6478 28.6855 17.4427 29.4899 17.4336 30.5518V31.4336C17.4336 32.5091 17.625 33.3294 18.0078 33.8945C18.3952 34.4596 18.9603 34.7422 19.7031 34.7422C20.3822 34.7422 20.8926 34.5895 21.2344 34.2842C21.5762 33.9788 21.7926 33.4707 21.8838 32.7598H23.6064ZM34.3516 31.2832C34.3516 32.2585 34.1829 33.1152 33.8457 33.8535C33.5085 34.5872 33.0254 35.1523 32.3965 35.5488C31.7721 35.9408 31.0521 36.1367 30.2363 36.1367C29.4297 36.1367 28.7096 35.9408 28.0762 35.5488C27.4473 35.1523 26.9596 34.5895 26.6133 33.8604C26.2715 33.1312 26.0983 32.2904 26.0938 31.3379V30.7773C26.0938 29.8066 26.2646 28.9499 26.6064 28.207C26.9528 27.4642 27.4382 26.8968 28.0625 26.5049C28.6914 26.1084 29.4115 25.9102 30.2227 25.9102C31.0339 25.9102 31.7516 26.1061 32.376 26.498C33.0049 26.8854 33.4902 27.446 33.832 28.1797C34.1738 28.9089 34.347 29.7588 34.3516 30.7295V31.2832ZM32.6221 30.7637C32.6221 29.6608 32.4124 28.8154 31.9932 28.2275C31.5785 27.6396 30.9883 27.3457 30.2227 27.3457C29.4753 27.3457 28.8896 27.6396 28.4658 28.2275C28.0465 28.8109 27.8324 29.638 27.8232 30.709V31.2832C27.8232 32.377 28.0352 33.2223 28.459 33.8193C28.8874 34.4163 29.4798 34.7148 30.2363 34.7148C31.002 34.7148 31.5898 34.4232 32 33.8398C32.4147 33.2565 32.6221 32.4043 32.6221 31.2832V30.7637ZM45.2197 36H43.4902L39.0537 28.9385V36H37.3242V26.0469H39.0537L43.5039 33.1357V26.0469H45.2197V36ZM55.5 27.4414H52.3965V36H50.6807V27.4414H47.6045V26.0469H55.5V27.4414ZM62.8135 33.6826H58.958L58.1514 36H56.3535L60.1133 26.0469H61.665L65.4316 36H63.627L62.8135 33.6826ZM59.4434 32.2881H62.3281L60.8857 28.1592L59.4434 32.2881ZM69.6416 36H67.9189V26.0469H69.6416V36ZM80.9131 36H79.1836L74.7471 28.9385V36H73.0176V26.0469H74.7471L79.1973 33.1357V26.0469H80.9131V36ZM90.0244 31.5566H85.9365V34.6191H90.7148V36H84.207V26.0469H90.667V27.4414H85.9365V30.1895H90.0244V31.5566ZM93.373 36V26.0469H96.3125C97.1921 26.0469 97.9714 26.2428 98.6504 26.6348C99.334 27.0267 99.8626 27.5827 100.236 28.3027C100.61 29.0228 100.797 29.8477 100.797 30.7773V31.2764C100.797 32.2197 100.608 33.0492 100.229 33.7646C99.8558 34.4801 99.3203 35.0316 98.623 35.4189C97.9303 35.8063 97.1351 36 96.2373 36H93.373ZM95.1025 27.4414V34.6191H96.2305C97.1374 34.6191 97.8324 34.3366 98.3154 33.7715C98.8031 33.2018 99.0514 32.3861 99.0605 31.3242V30.7705C99.0605 29.6904 98.8258 28.8656 98.3564 28.2959C97.887 27.7262 97.2057 27.4414 96.3125 27.4414H95.1025ZM108.506 36V26.0469H111.917C113.043 26.0469 113.899 26.2725 114.487 26.7236C115.075 27.1748 115.369 27.847 115.369 28.7402C115.369 29.196 115.246 29.6061 115 29.9707C114.754 30.3353 114.394 30.6178 113.92 30.8184C114.458 30.9642 114.872 31.2399 115.164 31.6455C115.46 32.0465 115.608 32.5296 115.608 33.0947C115.608 34.029 115.308 34.7467 114.706 35.248C114.109 35.7493 113.252 36 112.136 36H108.506ZM110.235 31.5088V34.6191H112.156C112.699 34.6191 113.122 34.4847 113.428 34.2158C113.733 33.9469 113.886 33.5732 113.886 33.0947C113.886 32.0602 113.357 31.5316 112.3 31.5088H110.235ZM110.235 30.2373H111.931C112.468 30.2373 112.888 30.1165 113.188 29.875C113.494 29.6289 113.646 29.2826 113.646 28.8359C113.646 28.3438 113.505 27.9883 113.223 27.7695C112.945 27.5508 112.509 27.4414 111.917 27.4414H110.235V30.2373ZM125.868 26.0469V32.6982C125.868 33.7555 125.529 34.5941 124.85 35.2139C124.175 35.8291 123.275 36.1367 122.149 36.1367C121.01 36.1367 120.105 35.8337 119.436 35.2275C118.766 34.6169 118.431 33.7715 118.431 32.6914V26.0469H120.153V32.7051C120.153 33.3704 120.322 33.8786 120.659 34.2295C120.996 34.5804 121.493 34.7559 122.149 34.7559C123.48 34.7559 124.146 34.054 124.146 32.6504V26.0469H125.868ZM136.162 27.4414H133.059V36H131.343V27.4414H128.267V26.0469H136.162V27.4414ZM146.025 27.4414H142.922V36H141.206V27.4414H138.13V26.0469H146.025V27.4414ZM156.34 31.2832C156.34 32.2585 156.171 33.1152 155.834 33.8535C155.497 34.5872 155.014 35.1523 154.385 35.5488C153.76 35.9408 153.04 36.1367 152.225 36.1367C151.418 36.1367 150.698 35.9408 150.064 35.5488C149.436 35.1523 148.948 34.5895 148.602 33.8604C148.26 33.1312 148.087 32.2904 148.082 31.3379V30.7773C148.082 29.8066 148.253 28.9499 148.595 28.207C148.941 27.4642 149.426 26.8968 150.051 26.5049C150.68 26.1084 151.4 25.9102 152.211 25.9102C153.022 25.9102 153.74 26.1061 154.364 26.498C154.993 26.8854 155.479 27.446 155.82 28.1797C156.162 28.9089 156.335 29.7588 156.34 30.7295V31.2832ZM154.61 30.7637C154.61 29.6608 154.401 28.8154 153.981 28.2275C153.567 27.6396 152.977 27.3457 152.211 27.3457C151.464 27.3457 150.878 27.6396 150.454 28.2275C150.035 28.8109 149.821 29.638 149.812 30.709V31.2832C149.812 32.377 150.023 33.2223 150.447 33.8193C150.876 34.4163 151.468 34.7148 152.225 34.7148C152.99 34.7148 153.578 34.4232 153.988 33.8398C154.403 33.2565 154.61 32.4043 154.61 31.2832V30.7637ZM167.208 36H165.479L161.042 28.9385V36H159.312V26.0469H161.042L165.492 33.1357V26.0469H167.208V36Z" fill="white"/>
</g>
</svg>
