<?xml version="1.0" encoding="UTF-8"?>
<svg width="357px" height="36px" viewBox="0 0 357 36" version="1.1" xmlns="http://www.w3.org/2000/svg" xmlns:xlink="http://www.w3.org/1999/xlink">
    <!-- Generator: Sketch 61 (89581) - https://sketch.com -->
    <title>Button 6</title>
    <desc>Created with Sketch.</desc>
    <defs>
        <path d="M109,-9.59232693e-14 L115,6 L115,5.998 L115,30 L109,36 L6,36 L-4.4408921e-16,30 L4.4408921e-16,6 L6,-8.8817842e-16 L109,-9.59232693e-14 Z" id="path-1"></path>
        <path d="M99.3333333,-3.37507799e-14 L105,5.66666667 L105,5.665 L105,28.334 L105,28.3333333 L99.3333333,34 L99.334,34 L5.66666667,34 L-4.4408921e-16,28.3333333 L4.4408921e-16,5.66666667 L5.66666667,0 L99.3333333,-3.37507799e-14 Z" id="path-3"></path>
    </defs>
    <g id="Button-6" stroke="none" stroke-width="1" fill="none" fill-rule="evenodd">
        <g id="Buttons-/-Contained-/-Enabled" transform="translate(242.000000, 0.000000)">
            <mask id="mask-2" fill="white">
                <use xlink:href="#path-1"></use>
            </mask>
            <use id="Surface" fill="#43A047" xlink:href="#path-1"></use>
            <path d="M47.4111328,23 C47.898763,22.9954427 48.3533529,22.9305013 48.7749023,22.8051758 C49.1964518,22.6798503 49.5610352,22.4964193 49.8686523,22.2548828 C50.1762695,22.0133464 50.4166667,21.7125651 50.5898438,21.3525391 C50.7630208,20.992513 50.8496094,20.5755208 50.8496094,20.1015625 C50.8496094,19.828125 50.8108724,19.5694987 50.7333984,19.3256836 C50.6559245,19.0818685 50.5442708,18.8597005 50.3984375,18.6591797 C50.2526042,18.4586589 50.0714518,18.2866211 49.8549805,18.1430664 C49.6385091,17.9995117 49.391276,17.8889974 49.1132812,17.8115234 C49.5690104,17.6201172 49.9313151,17.3500977 50.2001953,17.0014648 C50.4690755,16.652832 50.6057943,16.2324219 50.6103516,15.7402344 C50.6149089,15.2753906 50.5283203,14.8732096 50.3505859,14.5336914 C50.1728516,14.1941732 49.9278971,13.9150391 49.6157227,13.6962891 C49.3035482,13.4775391 48.9389648,13.3157552 48.5219727,13.2109375 C48.1049805,13.1061198 47.6572266,13.0514323 47.1787109,13.046875 L47.1787109,13.046875 L44,13.046875 L44,23 L47.4111328,23 Z M47.2197266,17.2373047 L45.6474609,17.2373047 L45.6474609,14.4003906 L47.2060547,14.4003906 C47.461263,14.4049479 47.6959635,14.433431 47.9101562,14.4858398 C48.124349,14.5382487 48.3100586,14.6214193 48.4672852,14.7353516 C48.6245117,14.8492839 48.7464193,14.9951172 48.8330078,15.1728516 C48.9195964,15.3505859 48.9628906,15.5647786 48.9628906,15.8154297 C48.9628906,16.0432943 48.9173177,16.2449544 48.8261719,16.4204102 C48.735026,16.5958659 48.6119792,16.7439779 48.4570312,16.8647461 C48.3020833,16.9855143 48.1186523,17.0766602 47.9067383,17.1381836 C47.6948242,17.199707 47.4658203,17.2327474 47.2197266,17.2373047 L47.2197266,17.2373047 Z M47.4384766,21.6601562 L45.6474609,21.6601562 L45.6474609,18.4882812 L47.5136719,18.4882812 C47.7734375,18.4928385 48.008138,18.5327148 48.2177734,18.6079102 C48.4274089,18.6831055 48.6051432,18.7890625 48.7509766,18.9257812 C48.8968099,19.0625 49.0084635,19.2299805 49.0859375,19.4282227 C49.1634115,19.6264648 49.2021484,19.8509115 49.2021484,20.1015625 C49.2021484,20.3385417 49.1577148,20.5527344 49.0688477,20.7441406 C48.9799805,20.9355469 48.8580729,21.0973307 48.703125,21.2294922 C48.5481771,21.3616536 48.3636068,21.465332 48.1494141,21.5405273 C47.9352214,21.6157227 47.6982422,21.655599 47.4384766,21.6601562 L47.4384766,21.6601562 Z M56.3310547,23.1435547 C56.773112,23.1435547 57.1730143,23.0421549 57.5307617,22.8393555 C57.8885091,22.636556 58.1927083,22.3528646 58.4433594,21.9882812 L58.4433594,21.9882812 L58.5390625,23 L60.015625,23 L60.015625,15.6035156 L58.375,15.6035156 L58.375,20.8535156 C58.2382812,21.1451823 58.0354818,21.3764648 57.7666016,21.5473633 C57.4977214,21.7182617 57.1445312,21.8037109 56.7070312,21.8037109 C56.4791667,21.8037109 56.2832031,21.7752279 56.1191406,21.7182617 C55.9550781,21.6612956 55.8183594,21.5644531 55.7089844,21.4277344 C55.5996094,21.2910156 55.5187174,21.1064453 55.4663086,20.8740234 C55.4138997,20.6416016 55.3876953,20.3476562 55.3876953,19.9921875 L55.3876953,19.9921875 L55.3876953,15.6035156 L53.7539062,15.6035156 L53.7539062,19.9785156 C53.7539062,20.5390625 53.816569,21.0187174 53.9418945,21.4174805 C54.0672201,21.8162435 54.2426758,22.1443685 54.4682617,22.4018555 C54.6938477,22.6593424 54.9650065,22.8473307 55.2817383,22.9658203 C55.5984701,23.0843099 55.9482422,23.1435547 56.3310547,23.1435547 Z M67.5068359,23.1435547 C67.7119141,23.1435547 67.9204102,23.1333008 68.1323242,23.112793 C68.3442383,23.0922852 68.5481771,23.0638021 68.7441406,23.0273438 C68.9401042,22.9908854 69.1212565,22.9441732 69.2875977,22.887207 C69.4539388,22.8302409 69.5963542,22.7675781 69.7148438,22.6992188 L69.7148438,22.6992188 L69.5302734,21.5712891 C69.4482422,21.5940755 69.3468424,21.6180013 69.2260742,21.6430664 C69.105306,21.6681315 68.9731445,21.690918 68.8295898,21.7114258 C68.6860352,21.7319336 68.5379232,21.7501628 68.3852539,21.7661133 C68.2325846,21.7820638 68.085612,21.7900391 67.9443359,21.7900391 C67.7529297,21.7900391 67.577474,21.7683919 67.4179688,21.7250977 C67.2584635,21.6818034 67.1194661,21.6054688 67.0009766,21.4960938 C66.882487,21.3867188 66.7902018,21.2408854 66.7241211,21.0585938 C66.6580404,20.8763021 66.625,20.6461589 66.625,20.3681641 L66.625,20.3681641 L66.625,16.8203125 L69.4208984,16.8203125 L69.4208984,15.6035156 L66.625,15.6035156 L66.625,13.8125 L64.9912109,13.8125 L64.9912109,15.6035156 L63.1865234,15.6035156 L63.1865234,16.8203125 L64.9912109,16.8203125 L64.9912109,20.4570312 C64.9912109,20.9309896 65.0538737,21.3377279 65.1791992,21.6772461 C65.3045247,22.0167643 65.4777018,22.2947591 65.6987305,22.5112305 C65.9197591,22.7277018 66.184082,22.887207 66.4916992,22.9897461 C66.7993164,23.0922852 67.1376953,23.1435547 67.5068359,23.1435547 Z M77.1582031,23.1435547 C77.3632812,23.1435547 77.5717773,23.1333008 77.7836914,23.112793 C77.9956055,23.0922852 78.1995443,23.0638021 78.3955078,23.0273438 C78.5914714,22.9908854 78.7726237,22.9441732 78.9389648,22.887207 C79.105306,22.8302409 79.2477214,22.7675781 79.3662109,22.6992188 L79.3662109,22.6992188 L79.1816406,21.5712891 C79.0996094,21.5940755 78.9982096,21.6180013 78.8774414,21.6430664 C78.7566732,21.6681315 78.6245117,21.690918 78.480957,21.7114258 C78.3374023,21.7319336 78.1892904,21.7501628 78.0366211,21.7661133 C77.8839518,21.7820638 77.7369792,21.7900391 77.5957031,21.7900391 C77.4042969,21.7900391 77.2288411,21.7683919 77.0693359,21.7250977 C76.9098307,21.6818034 76.7708333,21.6054688 76.6523438,21.4960938 C76.5338542,21.3867188 76.441569,21.2408854 76.3754883,21.0585938 C76.3094076,20.8763021 76.2763672,20.6461589 76.2763672,20.3681641 L76.2763672,20.3681641 L76.2763672,16.8203125 L79.0722656,16.8203125 L79.0722656,15.6035156 L76.2763672,15.6035156 L76.2763672,13.8125 L74.6425781,13.8125 L74.6425781,15.6035156 L72.8378906,15.6035156 L72.8378906,16.8203125 L74.6425781,16.8203125 L74.6425781,20.4570312 C74.6425781,20.9309896 74.7052409,21.3377279 74.8305664,21.6772461 C74.9558919,22.0167643 75.129069,22.2947591 75.3500977,22.5112305 C75.5711263,22.7277018 75.8354492,22.887207 76.1430664,22.9897461 C76.4506836,23.0922852 76.7890625,23.1435547 77.1582031,23.1435547 Z M85.7978516,23.1435547 C86.335612,23.1435547 86.8164062,23.0478516 87.2402344,22.8564453 C87.6640625,22.6650391 88.0229492,22.4018555 88.3168945,22.0668945 C88.6108398,21.7319336 88.8352865,21.3343099 88.9902344,20.8740234 C89.1451823,20.413737 89.2226562,19.9147135 89.2226562,19.3769531 L89.2226562,19.3769531 L89.2226562,19.2333984 C89.2226562,18.7001953 89.1451823,18.2034505 88.9902344,17.7431641 C88.8352865,17.2828776 88.6108398,16.8841146 88.3168945,16.546875 C88.0229492,16.2096354 87.6629232,15.9453125 87.2368164,15.7539062 C86.8107096,15.5625 86.3264974,15.4667969 85.7841797,15.4667969 C85.2464193,15.4667969 84.765625,15.5625 84.3417969,15.7539062 C83.9179688,15.9453125 83.559082,16.2096354 83.2651367,16.546875 C82.9711914,16.8841146 82.7456055,17.2828776 82.5883789,17.7431641 C82.4311523,18.2034505 82.3525391,18.7001953 82.3525391,19.2333984 L82.3525391,19.2333984 L82.3525391,19.3769531 C82.3525391,19.9147135 82.4311523,20.413737 82.5883789,20.8740234 C82.7456055,21.3343099 82.9711914,21.7319336 83.2651367,22.0668945 C83.559082,22.4018555 83.9191081,22.6650391 84.3452148,22.8564453 C84.7713216,23.0478516 85.2555339,23.1435547 85.7978516,23.1435547 Z M85.7978516,21.8378906 C85.4833984,21.8378906 85.2122396,21.7729492 84.984375,21.6430664 C84.7565104,21.5131836 84.5685221,21.3354492 84.4204102,21.1098633 C84.2722982,20.8842773 84.1629232,20.6233724 84.0922852,20.3271484 C84.0216471,20.0309245 83.9863281,19.7141927 83.9863281,19.3769531 L83.9863281,19.3769531 L83.9863281,19.2333984 C83.9863281,18.9052734 84.0216471,18.593099 84.0922852,18.296875 C84.1629232,18.000651 84.2711589,17.7408854 84.4169922,17.5175781 C84.5628255,17.2942708 84.7496745,17.1165365 84.9775391,16.984375 C85.2054036,16.8522135 85.4742839,16.7861328 85.7841797,16.7861328 C86.0986328,16.7861328 86.3686523,16.8522135 86.5942383,16.984375 C86.8198242,17.1165365 87.0066732,17.2942708 87.1547852,17.5175781 C87.3028971,17.7408854 87.4122721,18.000651 87.4829102,18.296875 C87.5535482,18.593099 87.5888672,18.9052734 87.5888672,19.2333984 L87.5888672,19.2333984 L87.5888672,19.3769531 C87.5888672,19.7141927 87.5535482,20.0309245 87.4829102,20.3271484 C87.4122721,20.6233724 87.3028971,20.8842773 87.1547852,21.1098633 C87.0066732,21.3354492 86.8198242,21.5131836 86.5942383,21.6430664 C86.3686523,21.7729492 86.1031901,21.8378906 85.7978516,21.8378906 Z M93.9453125,23 L93.9453125,17.6953125 C94.109375,17.421875 94.324707,17.2054036 94.5913086,17.0458984 C94.8579102,16.8863932 95.171224,16.8066406 95.53125,16.8066406 C95.7682292,16.8066406 95.9801432,16.8328451 96.1669922,16.8852539 C96.3538411,16.9376628 96.512207,17.0253906 96.6420898,17.1484375 C96.7719727,17.2714844 96.8722331,17.4355469 96.9428711,17.640625 C97.0135091,17.8457031 97.0488281,18.1009115 97.0488281,18.40625 L97.0488281,18.40625 L97.0488281,23 L98.6826172,23 L98.6826172,18.3789062 C98.6826172,17.859375 98.6199544,17.4150391 98.4946289,17.0458984 C98.3693034,16.6767578 98.1938477,16.3759766 97.9682617,16.1435547 C97.7426758,15.9111328 97.4737956,15.7402344 97.1616211,15.6308594 C96.8494466,15.5214844 96.5042318,15.4667969 96.1259766,15.4667969 C95.6611328,15.4667969 95.238444,15.5681966 94.8579102,15.7709961 C94.4773763,15.9737956 94.1526693,16.2597656 93.8837891,16.6289062 L93.8837891,16.6289062 L93.78125,15.6035156 L92.3046875,15.6035156 L92.3046875,23 L93.9453125,23 Z" id="Button" fill="#000000" fill-rule="nonzero" mask="url(#mask-2)"></path>
            <g id="add-24px" mask="url(#mask-2)">
                <g transform="translate(12.000000, 6.000000)" id="Path">
                    <polygon fill="#000000" fill-rule="nonzero" points="19 13 13 13 13 19 11 19 11 13 5 13 5 11 11 11 11 5 13 5 13 11 19 11"></polygon>
                    <polygon fill="none" points="0 0 24 0 24 24 0 24"></polygon>
                </g>
            </g>
        </g>
        <g id="Buttons-/-Outlined-/-Enabled" transform="translate(118.000000, 1.000000)">
            <path d="M40.4111328,21.953125 C40.898763,21.9485677 41.3533529,21.8836263 41.7749023,21.7583008 C42.1964518,21.6329753 42.5610352,21.4495443 42.8686523,21.2080078 C43.1762695,20.9664714 43.4166667,20.6656901 43.5898438,20.3056641 C43.7630208,19.945638 43.8496094,19.5286458 43.8496094,19.0546875 C43.8496094,18.78125 43.8108724,18.5226237 43.7333984,18.2788086 C43.6559245,18.0349935 43.5442708,17.8128255 43.3984375,17.6123047 C43.2526042,17.4117839 43.0714518,17.2397461 42.8549805,17.0961914 C42.6385091,16.9526367 42.391276,16.8421224 42.1132812,16.7646484 C42.5690104,16.5732422 42.9313151,16.3032227 43.2001953,15.9545898 C43.4690755,15.605957 43.6057943,15.1855469 43.6103516,14.6933594 C43.6149089,14.2285156 43.5283203,13.8263346 43.3505859,13.4868164 C43.1728516,13.1472982 42.9278971,12.8681641 42.6157227,12.6494141 C42.3035482,12.4306641 41.9389648,12.2688802 41.5219727,12.1640625 C41.1049805,12.0592448 40.6572266,12.0045573 40.1787109,12 L40.1787109,12 L37,12 L37,21.953125 L40.4111328,21.953125 Z M40.2197266,16.1904297 L38.6474609,16.1904297 L38.6474609,13.3535156 L40.2060547,13.3535156 C40.461263,13.3580729 40.6959635,13.386556 40.9101562,13.4389648 C41.124349,13.4913737 41.3100586,13.5745443 41.4672852,13.6884766 C41.6245117,13.8024089 41.7464193,13.9482422 41.8330078,14.1259766 C41.9195964,14.3037109 41.9628906,14.5179036 41.9628906,14.7685547 C41.9628906,14.9964193 41.9173177,15.1980794 41.8261719,15.3735352 C41.735026,15.5489909 41.6119792,15.6971029 41.4570312,15.8178711 C41.3020833,15.9386393 41.1186523,16.0297852 40.9067383,16.0913086 C40.6948242,16.152832 40.4658203,16.1858724 40.2197266,16.1904297 L40.2197266,16.1904297 Z M40.4384766,20.6132812 L38.6474609,20.6132812 L38.6474609,17.4414062 L40.5136719,17.4414062 C40.7734375,17.4459635 41.008138,17.4858398 41.2177734,17.5610352 C41.4274089,17.6362305 41.6051432,17.7421875 41.7509766,17.8789062 C41.8968099,18.015625 42.0084635,18.1831055 42.0859375,18.3813477 C42.1634115,18.5795898 42.2021484,18.8040365 42.2021484,19.0546875 C42.2021484,19.2916667 42.1577148,19.5058594 42.0688477,19.6972656 C41.9799805,19.8886719 41.8580729,20.0504557 41.703125,20.1826172 C41.5481771,20.3147786 41.3636068,20.418457 41.1494141,20.4936523 C40.9352214,20.5688477 40.6982422,20.608724 40.4384766,20.6132812 L40.4384766,20.6132812 Z M49.3310547,22.0966797 C49.773112,22.0966797 50.1730143,21.9952799 50.5307617,21.7924805 C50.8885091,21.589681 51.1927083,21.3059896 51.4433594,20.9414062 L51.4433594,20.9414062 L51.5390625,21.953125 L53.015625,21.953125 L53.015625,14.5566406 L51.375,14.5566406 L51.375,19.8066406 C51.2382812,20.0983073 51.0354818,20.3295898 50.7666016,20.5004883 C50.4977214,20.6713867 50.1445312,20.7568359 49.7070312,20.7568359 C49.4791667,20.7568359 49.2832031,20.7283529 49.1191406,20.6713867 C48.9550781,20.6144206 48.8183594,20.5175781 48.7089844,20.3808594 C48.5996094,20.2441406 48.5187174,20.0595703 48.4663086,19.8271484 C48.4138997,19.5947266 48.3876953,19.3007812 48.3876953,18.9453125 L48.3876953,18.9453125 L48.3876953,14.5566406 L46.7539062,14.5566406 L46.7539062,18.9316406 C46.7539062,19.4921875 46.816569,19.9718424 46.9418945,20.3706055 C47.0672201,20.7693685 47.2426758,21.0974935 47.4682617,21.3549805 C47.6938477,21.6124674 47.9650065,21.8004557 48.2817383,21.9189453 C48.5984701,22.0374349 48.9482422,22.0966797 49.3310547,22.0966797 Z M60.5068359,22.0966797 C60.7119141,22.0966797 60.9204102,22.0864258 61.1323242,22.065918 C61.3442383,22.0454102 61.5481771,22.0169271 61.7441406,21.9804688 C61.9401042,21.9440104 62.1212565,21.8972982 62.2875977,21.840332 C62.4539388,21.7833659 62.5963542,21.7207031 62.7148438,21.6523438 L62.7148438,21.6523438 L62.5302734,20.5244141 C62.4482422,20.5472005 62.3468424,20.5711263 62.2260742,20.5961914 C62.105306,20.6212565 61.9731445,20.644043 61.8295898,20.6645508 C61.6860352,20.6850586 61.5379232,20.7032878 61.3852539,20.7192383 C61.2325846,20.7351888 61.085612,20.7431641 60.9443359,20.7431641 C60.7529297,20.7431641 60.577474,20.7215169 60.4179688,20.6782227 C60.2584635,20.6349284 60.1194661,20.5585938 60.0009766,20.4492188 C59.882487,20.3398438 59.7902018,20.1940104 59.7241211,20.0117188 C59.6580404,19.8294271 59.625,19.5992839 59.625,19.3212891 L59.625,19.3212891 L59.625,15.7734375 L62.4208984,15.7734375 L62.4208984,14.5566406 L59.625,14.5566406 L59.625,12.765625 L57.9912109,12.765625 L57.9912109,14.5566406 L56.1865234,14.5566406 L56.1865234,15.7734375 L57.9912109,15.7734375 L57.9912109,19.4101562 C57.9912109,19.8841146 58.0538737,20.2908529 58.1791992,20.6303711 C58.3045247,20.9698893 58.4777018,21.2478841 58.6987305,21.4643555 C58.9197591,21.6808268 59.184082,21.840332 59.4916992,21.9428711 C59.7993164,22.0454102 60.1376953,22.0966797 60.5068359,22.0966797 Z M70.1582031,22.0966797 C70.3632812,22.0966797 70.5717773,22.0864258 70.7836914,22.065918 C70.9956055,22.0454102 71.1995443,22.0169271 71.3955078,21.9804688 C71.5914714,21.9440104 71.7726237,21.8972982 71.9389648,21.840332 C72.105306,21.7833659 72.2477214,21.7207031 72.3662109,21.6523438 L72.3662109,21.6523438 L72.1816406,20.5244141 C72.0996094,20.5472005 71.9982096,20.5711263 71.8774414,20.5961914 C71.7566732,20.6212565 71.6245117,20.644043 71.480957,20.6645508 C71.3374023,20.6850586 71.1892904,20.7032878 71.0366211,20.7192383 C70.8839518,20.7351888 70.7369792,20.7431641 70.5957031,20.7431641 C70.4042969,20.7431641 70.2288411,20.7215169 70.0693359,20.6782227 C69.9098307,20.6349284 69.7708333,20.5585938 69.6523438,20.4492188 C69.5338542,20.3398438 69.441569,20.1940104 69.3754883,20.0117188 C69.3094076,19.8294271 69.2763672,19.5992839 69.2763672,19.3212891 L69.2763672,19.3212891 L69.2763672,15.7734375 L72.0722656,15.7734375 L72.0722656,14.5566406 L69.2763672,14.5566406 L69.2763672,12.765625 L67.6425781,12.765625 L67.6425781,14.5566406 L65.8378906,14.5566406 L65.8378906,15.7734375 L67.6425781,15.7734375 L67.6425781,19.4101562 C67.6425781,19.8841146 67.7052409,20.2908529 67.8305664,20.6303711 C67.9558919,20.9698893 68.129069,21.2478841 68.3500977,21.4643555 C68.5711263,21.6808268 68.8354492,21.840332 69.1430664,21.9428711 C69.4506836,22.0454102 69.7890625,22.0966797 70.1582031,22.0966797 Z M78.7978516,22.0966797 C79.335612,22.0966797 79.8164062,22.0009766 80.2402344,21.8095703 C80.6640625,21.6181641 81.0229492,21.3549805 81.3168945,21.0200195 C81.6108398,20.6850586 81.8352865,20.2874349 81.9902344,19.8271484 C82.1451823,19.366862 82.2226562,18.8678385 82.2226562,18.3300781 L82.2226562,18.3300781 L82.2226562,18.1865234 C82.2226562,17.6533203 82.1451823,17.1565755 81.9902344,16.6962891 C81.8352865,16.2360026 81.6108398,15.8372396 81.3168945,15.5 C81.0229492,15.1627604 80.6629232,14.8984375 80.2368164,14.7070312 C79.8107096,14.515625 79.3264974,14.4199219 78.7841797,14.4199219 C78.2464193,14.4199219 77.765625,14.515625 77.3417969,14.7070312 C76.9179688,14.8984375 76.559082,15.1627604 76.2651367,15.5 C75.9711914,15.8372396 75.7456055,16.2360026 75.5883789,16.6962891 C75.4311523,17.1565755 75.3525391,17.6533203 75.3525391,18.1865234 L75.3525391,18.1865234 L75.3525391,18.3300781 C75.3525391,18.8678385 75.4311523,19.366862 75.5883789,19.8271484 C75.7456055,20.2874349 75.9711914,20.6850586 76.2651367,21.0200195 C76.559082,21.3549805 76.9191081,21.6181641 77.3452148,21.8095703 C77.7713216,22.0009766 78.2555339,22.0966797 78.7978516,22.0966797 Z M78.7978516,20.7910156 C78.4833984,20.7910156 78.2122396,20.7260742 77.984375,20.5961914 C77.7565104,20.4663086 77.5685221,20.2885742 77.4204102,20.0629883 C77.2722982,19.8374023 77.1629232,19.5764974 77.0922852,19.2802734 C77.0216471,18.9840495 76.9863281,18.6673177 76.9863281,18.3300781 L76.9863281,18.3300781 L76.9863281,18.1865234 C76.9863281,17.8583984 77.0216471,17.546224 77.0922852,17.25 C77.1629232,16.953776 77.2711589,16.6940104 77.4169922,16.4707031 C77.5628255,16.2473958 77.7496745,16.0696615 77.9775391,15.9375 C78.2054036,15.8053385 78.4742839,15.7392578 78.7841797,15.7392578 C79.0986328,15.7392578 79.3686523,15.8053385 79.5942383,15.9375 C79.8198242,16.0696615 80.0066732,16.2473958 80.1547852,16.4707031 C80.3028971,16.6940104 80.4122721,16.953776 80.4829102,17.25 C80.5535482,17.546224 80.5888672,17.8583984 80.5888672,18.1865234 L80.5888672,18.1865234 L80.5888672,18.3300781 C80.5888672,18.6673177 80.5535482,18.9840495 80.4829102,19.2802734 C80.4122721,19.5764974 80.3028971,19.8374023 80.1547852,20.0629883 C80.0066732,20.2885742 79.8198242,20.4663086 79.5942383,20.5961914 C79.3686523,20.7260742 79.1031901,20.7910156 78.7978516,20.7910156 Z M86.9453125,21.953125 L86.9453125,16.6484375 C87.109375,16.375 87.324707,16.1585286 87.5913086,15.9990234 C87.8579102,15.8395182 88.171224,15.7597656 88.53125,15.7597656 C88.7682292,15.7597656 88.9801432,15.7859701 89.1669922,15.8383789 C89.3538411,15.8907878 89.512207,15.9785156 89.6420898,16.1015625 C89.7719727,16.2246094 89.8722331,16.3886719 89.9428711,16.59375 C90.0135091,16.7988281 90.0488281,17.0540365 90.0488281,17.359375 L90.0488281,17.359375 L90.0488281,21.953125 L91.6826172,21.953125 L91.6826172,17.3320312 C91.6826172,16.8125 91.6199544,16.3681641 91.4946289,15.9990234 C91.3693034,15.6298828 91.1938477,15.3291016 90.9682617,15.0966797 C90.7426758,14.8642578 90.4737956,14.6933594 90.1616211,14.5839844 C89.8494466,14.4746094 89.5042318,14.4199219 89.1259766,14.4199219 C88.6611328,14.4199219 88.238444,14.5213216 87.8579102,14.7241211 C87.4773763,14.9269206 87.1526693,15.2128906 86.8837891,15.5820312 L86.8837891,15.5820312 L86.78125,14.5566406 L85.3046875,14.5566406 L85.3046875,21.953125 L86.9453125,21.953125 Z" id="Button" fill="#43A047" fill-rule="nonzero"></path>
            <g id="add-24px" transform="translate(9.000000, 5.000000)">
                <polygon id="Path" points="0 0 24 0 24 24 0 24"></polygon>
                <polygon id="Path" fill="#43A047" fill-rule="nonzero" points="19 13 13 13 13 19 11 19 11 13 5 13 5 11 11 11 11 5 13 5 13 11 19 11"></polygon>
            </g>
            <mask id="mask-4" fill="white">
                <use xlink:href="#path-3"></use>
            </mask>
            <path stroke-opacity="0.12" stroke="#000000" d="M105.001667,5.665 L105,5.66666667 L104.5,5.66666667 L104.5,5.665 L105.001667,5.665 Z M105.001667,5.665 L105.5,5.665 L105.5,28.334 L104.5,28.334 L104.5,28.3333333 L105,28.3333333 L105.353553,28.6868867 L99.6868867,34.3535534 L99.3333333,34 L99.3333333,33.5 L99.334,33.5 L99.334,34.5 L5.45955989,34.5 L-0.5,28.5404401 L-0.5,5.45955989 L5.45955989,-0.5 L99.3333333,-0.5 L99.5404401,-0.5 L105.353553,5.31311328 L105.001667,5.665 Z"></path>
        </g>
        <g id="Buttons-/-Outlined-/-Enabled" transform="translate(8.000000, 6.000000)">
            <path d="M31.4111328,16.953125 C31.898763,16.9485677 32.3533529,16.8836263 32.7749023,16.7583008 C33.1964518,16.6329753 33.5610352,16.4495443 33.8686523,16.2080078 C34.1762695,15.9664714 34.4166667,15.6656901 34.5898438,15.3056641 C34.7630208,14.945638 34.8496094,14.5286458 34.8496094,14.0546875 C34.8496094,13.78125 34.8108724,13.5226237 34.7333984,13.2788086 C34.6559245,13.0349935 34.5442708,12.8128255 34.3984375,12.6123047 C34.2526042,12.4117839 34.0714518,12.2397461 33.8549805,12.0961914 C33.6385091,11.9526367 33.391276,11.8421224 33.1132812,11.7646484 C33.5690104,11.5732422 33.9313151,11.3032227 34.2001953,10.9545898 C34.4690755,10.605957 34.6057943,10.1855469 34.6103516,9.69335938 C34.6149089,9.22851562 34.5283203,8.82633464 34.3505859,8.48681641 C34.1728516,8.14729818 33.9278971,7.86816406 33.6157227,7.64941406 C33.3035482,7.43066406 32.9389648,7.26888021 32.5219727,7.1640625 C32.1049805,7.05924479 31.6572266,7.00455729 31.1787109,7 L31.1787109,7 L28,7 L28,16.953125 L31.4111328,16.953125 Z M31.2197266,11.1904297 L29.6474609,11.1904297 L29.6474609,8.35351562 L31.2060547,8.35351562 C31.461263,8.35807292 31.6959635,8.38655599 31.9101562,8.43896484 C32.124349,8.4913737 32.3100586,8.57454427 32.4672852,8.68847656 C32.6245117,8.80240885 32.7464193,8.94824219 32.8330078,9.12597656 C32.9195964,9.30371094 32.9628906,9.51790365 32.9628906,9.76855469 C32.9628906,9.99641927 32.9173177,10.1980794 32.8261719,10.3735352 C32.735026,10.5489909 32.6119792,10.6971029 32.4570312,10.8178711 C32.3020833,10.9386393 32.1186523,11.0297852 31.9067383,11.0913086 C31.6948242,11.152832 31.4658203,11.1858724 31.2197266,11.1904297 L31.2197266,11.1904297 Z M31.4384766,15.6132812 L29.6474609,15.6132812 L29.6474609,12.4414062 L31.5136719,12.4414062 C31.7734375,12.4459635 32.008138,12.4858398 32.2177734,12.5610352 C32.4274089,12.6362305 32.6051432,12.7421875 32.7509766,12.8789062 C32.8968099,13.015625 33.0084635,13.1831055 33.0859375,13.3813477 C33.1634115,13.5795898 33.2021484,13.8040365 33.2021484,14.0546875 C33.2021484,14.2916667 33.1577148,14.5058594 33.0688477,14.6972656 C32.9799805,14.8886719 32.8580729,15.0504557 32.703125,15.1826172 C32.5481771,15.3147786 32.3636068,15.418457 32.1494141,15.4936523 C31.9352214,15.5688477 31.6982422,15.608724 31.4384766,15.6132812 L31.4384766,15.6132812 Z M40.3310547,17.0966797 C40.773112,17.0966797 41.1730143,16.9952799 41.5307617,16.7924805 C41.8885091,16.589681 42.1927083,16.3059896 42.4433594,15.9414062 L42.4433594,15.9414062 L42.5390625,16.953125 L44.015625,16.953125 L44.015625,9.55664062 L42.375,9.55664062 L42.375,14.8066406 C42.2382812,15.0983073 42.0354818,15.3295898 41.7666016,15.5004883 C41.4977214,15.6713867 41.1445312,15.7568359 40.7070312,15.7568359 C40.4791667,15.7568359 40.2832031,15.7283529 40.1191406,15.6713867 C39.9550781,15.6144206 39.8183594,15.5175781 39.7089844,15.3808594 C39.5996094,15.2441406 39.5187174,15.0595703 39.4663086,14.8271484 C39.4138997,14.5947266 39.3876953,14.3007812 39.3876953,13.9453125 L39.3876953,13.9453125 L39.3876953,9.55664062 L37.7539062,9.55664062 L37.7539062,13.9316406 C37.7539062,14.4921875 37.816569,14.9718424 37.9418945,15.3706055 C38.0672201,15.7693685 38.2426758,16.0974935 38.4682617,16.3549805 C38.6938477,16.6124674 38.9650065,16.8004557 39.2817383,16.9189453 C39.5984701,17.0374349 39.9482422,17.0966797 40.3310547,17.0966797 Z M51.5068359,17.0966797 C51.7119141,17.0966797 51.9204102,17.0864258 52.1323242,17.065918 C52.3442383,17.0454102 52.5481771,17.0169271 52.7441406,16.9804688 C52.9401042,16.9440104 53.1212565,16.8972982 53.2875977,16.840332 C53.4539388,16.7833659 53.5963542,16.7207031 53.7148438,16.6523438 L53.7148438,16.6523438 L53.5302734,15.5244141 C53.4482422,15.5472005 53.3468424,15.5711263 53.2260742,15.5961914 C53.105306,15.6212565 52.9731445,15.644043 52.8295898,15.6645508 C52.6860352,15.6850586 52.5379232,15.7032878 52.3852539,15.7192383 C52.2325846,15.7351888 52.085612,15.7431641 51.9443359,15.7431641 C51.7529297,15.7431641 51.577474,15.7215169 51.4179688,15.6782227 C51.2584635,15.6349284 51.1194661,15.5585938 51.0009766,15.4492188 C50.882487,15.3398438 50.7902018,15.1940104 50.7241211,15.0117188 C50.6580404,14.8294271 50.625,14.5992839 50.625,14.3212891 L50.625,14.3212891 L50.625,10.7734375 L53.4208984,10.7734375 L53.4208984,9.55664062 L50.625,9.55664062 L50.625,7.765625 L48.9912109,7.765625 L48.9912109,9.55664062 L47.1865234,9.55664062 L47.1865234,10.7734375 L48.9912109,10.7734375 L48.9912109,14.4101562 C48.9912109,14.8841146 49.0538737,15.2908529 49.1791992,15.6303711 C49.3045247,15.9698893 49.4777018,16.2478841 49.6987305,16.4643555 C49.9197591,16.6808268 50.184082,16.840332 50.4916992,16.9428711 C50.7993164,17.0454102 51.1376953,17.0966797 51.5068359,17.0966797 Z M61.1582031,17.0966797 C61.3632812,17.0966797 61.5717773,17.0864258 61.7836914,17.065918 C61.9956055,17.0454102 62.1995443,17.0169271 62.3955078,16.9804688 C62.5914714,16.9440104 62.7726237,16.8972982 62.9389648,16.840332 C63.105306,16.7833659 63.2477214,16.7207031 63.3662109,16.6523438 L63.3662109,16.6523438 L63.1816406,15.5244141 C63.0996094,15.5472005 62.9982096,15.5711263 62.8774414,15.5961914 C62.7566732,15.6212565 62.6245117,15.644043 62.480957,15.6645508 C62.3374023,15.6850586 62.1892904,15.7032878 62.0366211,15.7192383 C61.8839518,15.7351888 61.7369792,15.7431641 61.5957031,15.7431641 C61.4042969,15.7431641 61.2288411,15.7215169 61.0693359,15.6782227 C60.9098307,15.6349284 60.7708333,15.5585938 60.6523438,15.4492188 C60.5338542,15.3398438 60.441569,15.1940104 60.3754883,15.0117188 C60.3094076,14.8294271 60.2763672,14.5992839 60.2763672,14.3212891 L60.2763672,14.3212891 L60.2763672,10.7734375 L63.0722656,10.7734375 L63.0722656,9.55664062 L60.2763672,9.55664062 L60.2763672,7.765625 L58.6425781,7.765625 L58.6425781,9.55664062 L56.8378906,9.55664062 L56.8378906,10.7734375 L58.6425781,10.7734375 L58.6425781,14.4101562 C58.6425781,14.8841146 58.7052409,15.2908529 58.8305664,15.6303711 C58.9558919,15.9698893 59.129069,16.2478841 59.3500977,16.4643555 C59.5711263,16.6808268 59.8354492,16.840332 60.1430664,16.9428711 C60.4506836,17.0454102 60.7890625,17.0966797 61.1582031,17.0966797 Z M69.7978516,17.0966797 C70.335612,17.0966797 70.8164062,17.0009766 71.2402344,16.8095703 C71.6640625,16.6181641 72.0229492,16.3549805 72.3168945,16.0200195 C72.6108398,15.6850586 72.8352865,15.2874349 72.9902344,14.8271484 C73.1451823,14.366862 73.2226562,13.8678385 73.2226562,13.3300781 L73.2226562,13.3300781 L73.2226562,13.1865234 C73.2226562,12.6533203 73.1451823,12.1565755 72.9902344,11.6962891 C72.8352865,11.2360026 72.6108398,10.8372396 72.3168945,10.5 C72.0229492,10.1627604 71.6629232,9.8984375 71.2368164,9.70703125 C70.8107096,9.515625 70.3264974,9.41992188 69.7841797,9.41992188 C69.2464193,9.41992188 68.765625,9.515625 68.3417969,9.70703125 C67.9179688,9.8984375 67.559082,10.1627604 67.2651367,10.5 C66.9711914,10.8372396 66.7456055,11.2360026 66.5883789,11.6962891 C66.4311523,12.1565755 66.3525391,12.6533203 66.3525391,13.1865234 L66.3525391,13.1865234 L66.3525391,13.3300781 C66.3525391,13.8678385 66.4311523,14.366862 66.5883789,14.8271484 C66.7456055,15.2874349 66.9711914,15.6850586 67.2651367,16.0200195 C67.559082,16.3549805 67.9191081,16.6181641 68.3452148,16.8095703 C68.7713216,17.0009766 69.2555339,17.0966797 69.7978516,17.0966797 Z M69.7978516,15.7910156 C69.4833984,15.7910156 69.2122396,15.7260742 68.984375,15.5961914 C68.7565104,15.4663086 68.5685221,15.2885742 68.4204102,15.0629883 C68.2722982,14.8374023 68.1629232,14.5764974 68.0922852,14.2802734 C68.0216471,13.9840495 67.9863281,13.6673177 67.9863281,13.3300781 L67.9863281,13.3300781 L67.9863281,13.1865234 C67.9863281,12.8583984 68.0216471,12.546224 68.0922852,12.25 C68.1629232,11.953776 68.2711589,11.6940104 68.4169922,11.4707031 C68.5628255,11.2473958 68.7496745,11.0696615 68.9775391,10.9375 C69.2054036,10.8053385 69.4742839,10.7392578 69.7841797,10.7392578 C70.0986328,10.7392578 70.3686523,10.8053385 70.5942383,10.9375 C70.8198242,11.0696615 71.0066732,11.2473958 71.1547852,11.4707031 C71.3028971,11.6940104 71.4122721,11.953776 71.4829102,12.25 C71.5535482,12.546224 71.5888672,12.8583984 71.5888672,13.1865234 L71.5888672,13.1865234 L71.5888672,13.3300781 C71.5888672,13.6673177 71.5535482,13.9840495 71.4829102,14.2802734 C71.4122721,14.5764974 71.3028971,14.8374023 71.1547852,15.0629883 C71.0066732,15.2885742 70.8198242,15.4663086 70.5942383,15.5961914 C70.3686523,15.7260742 70.1031901,15.7910156 69.7978516,15.7910156 Z M77.9453125,16.953125 L77.9453125,11.6484375 C78.109375,11.375 78.324707,11.1585286 78.5913086,10.9990234 C78.8579102,10.8395182 79.171224,10.7597656 79.53125,10.7597656 C79.7682292,10.7597656 79.9801432,10.7859701 80.1669922,10.8383789 C80.3538411,10.8907878 80.512207,10.9785156 80.6420898,11.1015625 C80.7719727,11.2246094 80.8722331,11.3886719 80.9428711,11.59375 C81.0135091,11.7988281 81.0488281,12.0540365 81.0488281,12.359375 L81.0488281,12.359375 L81.0488281,16.953125 L82.6826172,16.953125 L82.6826172,12.3320312 C82.6826172,11.8125 82.6199544,11.3681641 82.4946289,10.9990234 C82.3693034,10.6298828 82.1938477,10.3291016 81.9682617,10.0966797 C81.7426758,9.86425781 81.4737956,9.69335938 81.1616211,9.58398438 C80.8494466,9.47460938 80.5042318,9.41992188 80.1259766,9.41992188 C79.6611328,9.41992188 79.238444,9.52132161 78.8579102,9.72412109 C78.4773763,9.92692057 78.1526693,10.2128906 77.8837891,10.5820312 L77.8837891,10.5820312 L77.78125,9.55664062 L76.3046875,9.55664062 L76.3046875,16.953125 L77.9453125,16.953125 Z" id="Button" fill="#43A047" fill-rule="nonzero"></path>
            <g id="add-24px">
                <polygon id="Path" fill="#43A047" fill-rule="nonzero" points="19 13 13 13 13 19 11 19 11 13 5 13 5 11 11 11 11 5 13 5 13 11 19 11"></polygon>
                <polygon id="Path" points="0 0 24 0 24 24 0 24"></polygon>
            </g>
        </g>
    </g>
</svg>